<svg height="498pt" viewBox="0 -50 498.00702 498" width="498pt" xmlns="http://www.w3.org/2000/svg"><path d="m498 122.316406c-.109375-19.070312-15.664062-34.433594-34.734375-34.3125h-15.265625v-41.617187c.054688-12.335938-4.828125-24.183594-13.5625-32.894531-8.734375-8.714844-20.589844-13.570313-32.925781-13.48828175h-334.070313c-12.332031-.08203125-24.183594 4.77734375-32.90625 13.49218775-8.726562 8.714844-13.601562 20.558594-13.535156 32.890625v237.617187h-12.976562c-2.09375-.0625-4.125.722656-5.636719 2.175782-1.507813 1.453124-2.371094 3.453124-2.386719 5.550781v29.890625c.0390625 12.378906 5.007812 24.234375 13.8125 32.9375 8.800781 8.707031 20.707031 13.542968 33.085938 13.445312h204.578124c2.355469 17.175782 17.023438 29.980469 34.359376 30h184.363281c7.519531.078125 14.75-2.886718 20.050781-8.222656 5.070312-5.210938 7.863281-12.226562 7.753906-19.5zm-461-75.929687c-.070312-8.089844 3.117188-15.867188 8.84375-21.582031 5.726562-5.714844 13.507812-8.886719 21.597656-8.800782h334.070313c8.09375-.085937 15.882812 3.082032 21.617187 8.796875 5.734375 5.710938 8.929688 13.492188 8.871094 21.585938v41.617187h-22v-39.378906c-.011719-2.082031-.867188-4.066406-2.371094-5.503906s-3.527344-2.203125-5.609375-2.117188h-335.089843c-2.074219-.082031-4.089844.683594-5.589844 2.121094-1.496094 1.4375-2.339844 3.425781-2.339844 5.5v235.378906h-22zm-21 275.234375v-21.617188h157.9375l5.511719 5.9375c8.890625 9.605469 21.382812 15.066406 34.46875 15.0625h37.082031v31h-204.101562c-17.023438 0-30.898438-13.355468-30.898438-30.382812zm235-199.28125v182.664062h-37.082031c-8.632813-.046875-16.859375-3.683594-22.699219-10.042968l-7.890625-8.46875c-1.527344-1.621094-3.664063-2.523438-5.886719-2.488282h-102.441406v-227h319v31h-108.1875c-19.066406 0-34.8125 15.25-34.8125 34.335938zm227.742188 256.300781c-2.261719 2.25-5.351563 3.46875-8.542969 3.363281h-184.339844c-10.300781 0-18.859375-7.933594-18.859375-18.199218v-241.441407c.058594-4.933593 2.078125-9.640625 5.613281-13.085937 3.53125-3.441406 8.289063-5.339844 13.222657-5.273438h177.40625c4.921874-.066406 9.667968 1.828125 13.191406 5.269532 3.519531 3.441406 5.523437 8.144531 5.566406 13.066406v248.054687c0 .078125-.015625.039063-.011719.117188.085938 3.042969-1.085937 5.984375-3.246093 8.128906zm0 0"/><path d="m471 121.003906c0-4.417968-3.582031-8-8-8h-177c-4.417969 0-8 3.582032-8 8v221c0 4.417969 3.582031 8 8 8h177c4.417969 0 8-3.582031 8-8zm-16 213h-161v-205h161zm0 0"/><path d="m382.933594 358.003906h-16.753906c-4.417969 0-8 3.582032-8 8 0 4.417969 3.582031 8 8 8h16.753906c4.417968 0 8-3.582031 8-8 0-4.417968-3.582032-8-8-8zm0 0"/></svg>